# xmcd CD database file
#
# Track frame offsets:
#	150
#	27748
#	47985
#	66239
#	94643
#	117499
#	131985
#	140120
#	144036
#	157539
#	173806
#	193420
#	199163
#	213335
#
# Disc length: 3144 seconds
#
# Revision: 0
# Processed by: cddbd v1.5.2PL0 Copyright (c) Steve Scherf et al.
# Submitted via: CDex 1.70beta2
#
DISCID=d80c460e
DTITLE=塩谷　哲 - ソロ・ピアノ＝ソロ・ソルト
DYEAR=2008
DGENRE=Jazz
TTITLE0=01 スリー・ビューズ・オブ・ア・シークレット
TTITLE1=02 ドント・ノウ・ホワイ
TTITLE2=03 ２つの「メヌエット」
TTITLE3=04 ウォーク・アローン
TTITLE4=05 ミスター・マドンナ
TTITLE5=06 「インヴェンション」より第１番
TTITLE6=07 純白の野心（組曲「工場長の小さな憂鬱」）
TTITLE7=08 森に棲む妖精たちのラベル貼り（組曲「工場長の小さな憂鬱」）
TTITLE8=09 かそけきものたちの声（組曲「工場長の小さな憂鬱」）
TTITLE9=10 慈愛（組曲「工場長の小さな憂鬱」）
TTITLE10=11 うつつと夢（組曲「工場長の小さな憂鬱」）
TTITLE11=12 ニンフの囁き（組曲「工場長の小さな憂鬱」）
TTITLE12=13 彩られる明日へ（組曲「工場長の小さな憂鬱」）
TTITLE13=14 プレシャスネス
EXTD=YEAR: 2008
EXTT0=
EXTT1=
EXTT2=
EXTT3=
EXTT4=
EXTT5=
EXTT6=
EXTT7=
EXTT8=
EXTT9=
EXTT10=
EXTT11=
EXTT12=
EXTT13=
PLAYORDER=
